<svg xmlns="http://www.w3.org/2000/svg" viewBox="0 0 240 120" role="img" aria-label="3D clown fish">
  <defs>
    <linearGradient id="body" x1="30" y1="18" x2="202" y2="102" gradientUnits="userSpaceOnUse">
      <stop offset="0" stop-color="#fff4bf"/>
      <stop offset="0.18" stop-color="#ffb44d"/>
      <stop offset="0.58" stop-color="#f45b25"/>
      <stop offset="1" stop-color="#8d1f12"/>
    </linearGradient>
    <linearGradient id="belly" x1="74" y1="78" x2="177" y2="107" gradientUnits="userSpaceOnUse">
      <stop offset="0" stop-color="#fff8da" stop-opacity=".92"/>
      <stop offset="1" stop-color="#ffcc82" stop-opacity=".08"/>
    </linearGradient>
    <radialGradient id="shine" cx="40%" cy="30%" r="55%">
      <stop offset="0" stop-color="#ffffff" stop-opacity=".92"/>
      <stop offset=".28" stop-color="#fff6cf" stop-opacity=".38"/>
      <stop offset="1" stop-color="#fff6cf" stop-opacity="0"/>
    </radialGradient>
    <filter id="shadow" x="-20%" y="-35%" width="145%" height="175%">
      <feDropShadow dx="0" dy="8" stdDeviation="5" flood-color="#001624" flood-opacity=".55"/>
      <feDropShadow dx="0" dy="0" stdDeviation="4" flood-color="#ffb33b" flood-opacity=".28"/>
    </filter>
  </defs>
  <g filter="url(#shadow)">
    <path d="M33 59C17 43 12 29 9 18c17 7 32 17 43 31 0 0 0 19-1 22-12 13-27 22-45 28 4-15 11-30 27-40z" fill="#fb7b2c"/>
    <path d="M42 58C71 19 146 11 194 45c17 12 17 25 1 37-49 36-126 22-153-24z" fill="url(#body)"/>
    <path d="M66 34c11 12 12 38 1 53" fill="none" stroke="#fff4dd" stroke-width="13" stroke-linecap="round" opacity=".9"/>
    <path d="M128 23c13 16 13 55 0 74" fill="none" stroke="#fff4dd" stroke-width="15" stroke-linecap="round" opacity=".88"/>
    <path d="M169 34c10 13 10 36 0 50" fill="none" stroke="#311015" stroke-width="5" stroke-linecap="round" opacity=".34"/>
    <path d="M77 82c31 18 79 15 110-2-23 23-76 30-110 2z" fill="url(#belly)"/>
    <path d="M89 21c22-14 54-15 80-1-20 5-51 7-80 1z" fill="#ffcf69" opacity=".88"/>
    <path d="M96 98c25 8 50 7 70-3-12 17-47 21-70 3z" fill="#a72a1e" opacity=".5"/>
    <ellipse cx="180" cy="50" rx="10" ry="10" fill="#11131a"/>
    <ellipse cx="183" cy="47" rx="3" ry="3" fill="#fff9d8"/>
    <path d="M71 37c36-21 80-21 112-1-32-10-75-8-112 1z" fill="url(#shine)"/>
  </g>
</svg>