<svg xmlns="http://www.w3.org/2000/svg" viewBox="0 0 360 170" role="img" aria-label="Jackpot boss whale">
  <defs>
    <linearGradient id="boss" x1="47" y1="20" x2="310" y2="140">
      <stop offset="0" stop-color="#ffd870"/>
      <stop offset=".18" stop-color="#b6172d"/>
      <stop offset=".55" stop-color="#4b0615"/>
      <stop offset=".82" stop-color="#d7203a"/>
      <stop offset="1" stop-color="#ffd871"/>
    </linearGradient>
    <linearGradient id="belly" x1="123" y1="102" x2="282" y2="150">
      <stop stop-color="#fff2b2" stop-opacity=".88"/>
      <stop offset="1" stop-color="#ff4b66" stop-opacity=".18"/>
    </linearGradient>
    <radialGradient id="aura" cx="53%" cy="49%" r="65%">
      <stop stop-color="#ffd76b" stop-opacity=".5"/>
      <stop offset=".42" stop-color="#ff3f64" stop-opacity=".22"/>
      <stop offset="1" stop-color="#29e8ff" stop-opacity="0"/>
    </radialGradient>
    <filter id="bossGlow" x="-24%" y="-40%" width="155%" height="188%">
      <feDropShadow dx="0" dy="0" stdDeviation="10" flood-color="#ffcf55" flood-opacity=".5"/>
      <feDropShadow dx="0" dy="10" stdDeviation="7" flood-color="#09000a" flood-opacity=".65"/>
    </filter>
  </defs>
  <ellipse cx="183" cy="88" rx="162" ry="76" fill="url(#aura)"/>
  <g filter="url(#bossGlow)">
    <path d="M46 84C24 61 13 38 8 13c34 10 63 30 88 60v26c-26 31-58 50-91 62 8-28 20-54 41-77z" fill="#7c0718"/>
    <path d="M72 86c50-66 178-80 249-26 32 25 30 55-5 78-78 50-200 26-244-52z" fill="url(#boss)"/>
    <path d="M128 115c53 26 119 25 175-5-34 42-125 52-175 5z" fill="url(#belly)"/>
    <path d="M118 38c59-26 131-25 181 2-54 0-112 8-181-2z" fill="#fff0a0" opacity=".56"/>
    <path d="M141 31l13-22 14 22 25 4-18 17 4 25-25-12-24 12 4-25-18-17z" fill="#ffd96f" stroke="#fff2ad" stroke-width="4"/>
    <path d="M129 58c49-20 113-18 165 5" fill="none" stroke="#ffd76d" stroke-width="8" stroke-linecap="round" opacity=".48"/>
    <path d="M122 85c67 26 135 24 190-8" fill="none" stroke="#fff2ad" stroke-width="5" stroke-linecap="round" opacity=".27"/>
    <path d="M181 54l19 24 31 2-22 21 7 31-29-15-27 17 5-32-24-20 31-4z" fill="#ffcf5e" opacity=".28"/>
    <circle cx="293" cy="75" r="13" fill="#11080d"/>
    <circle cx="298" cy="70" r="4" fill="#fff4c5"/>
    <path d="M304 97c11 5 23 4 31-3-4 16-25 20-31 3z" fill="#fff0a5" opacity=".54"/>
  </g>
</svg>