<svg xmlns="http://www.w3.org/2000/svg" viewBox="0 0 256 256">
  <defs>
    <radialGradient id="evilStarCore" cx="45%" cy="40%" r="72%">
      <stop offset="0" stop-color="#ffe66b"/>
      <stop offset="0.38" stop-color="#ff5b4a"/>
      <stop offset="0.72" stop-color="#9a1235"/>
      <stop offset="1" stop-color="#27040f"/>
    </radialGradient>
    <filter id="starShadow" x="-18%" y="-18%" width="136%" height="140%">
      <feDropShadow dx="0" dy="7" stdDeviation="4" flood-color="#090006" flood-opacity="0.5"/>
    </filter>
  </defs>
  <g filter="url(#starShadow)">
    <path d="M128 19l29 73 78-6-61 51 27 76-73-43-73 43 27-76-61-51 78 6z" fill="url(#evilStarCore)" stroke="#2b030b" stroke-width="8" stroke-linejoin="round"/>
    <path d="M128 31l16 45 43-4-34 30 15 43-40-25-40 25 15-43-34-30 43 4z" fill="#ffb33b" opacity=".25"/>
    <circle cx="128" cy="128" r="34" fill="#5e071d" opacity=".62"/>
    <path d="M98 112l22 8M158 112l-22 8" stroke="#14030a" stroke-width="9" stroke-linecap="round"/>
    <ellipse cx="111" cy="126" rx="9" ry="13" fill="#080207"/>
    <ellipse cx="145" cy="126" rx="9" ry="13" fill="#080207"/>
    <circle cx="113" cy="126" r="3.5" fill="#ff2738"/>
    <circle cx="143" cy="126" r="3.5" fill="#ff2738"/>
    <path d="M110 149c11-9 25-10 37 0" fill="none" stroke="#170208" stroke-width="7" stroke-linecap="round"/>
    <g fill="#2b030b" opacity=".54">
      <path d="M128 50l7 29h-14z"/><path d="M199 100l-25 16 8-28z"/><path d="M172 184l-26-16 28-8z"/><path d="M84 184l26-16-28-8z"/><path d="M57 100l25 16-8-28z"/>
    </g>
    <g fill="#ffd36d" opacity=".65">
      <circle cx="128" cy="76" r="4"/><circle cx="176" cy="108" r="4"/><circle cx="158" cy="165" r="4"/><circle cx="98" cy="165" r="4"/><circle cx="80" cy="108" r="4"/>
    </g>
  </g>
</svg>