<svg xmlns="http://www.w3.org/2000/svg" viewBox="0 0 256 256">
  <defs>
    <radialGradient id="evilOctoBody" cx="40%" cy="28%" r="72%">
      <stop offset="0" stop-color="#ff80d7"/>
      <stop offset="0.42" stop-color="#7d1fb5"/>
      <stop offset="1" stop-color="#16051f"/>
    </radialGradient>
    <linearGradient id="evilOctoTentacle" x1="0" x2="1" y1="0" y2="1">
      <stop offset="0" stop-color="#b835ff"/>
      <stop offset="0.48" stop-color="#5b158d"/>
      <stop offset="1" stop-color="#11031b"/>
    </linearGradient>
    <filter id="shadow" x="-20%" y="-20%" width="140%" height="145%">
      <feDropShadow dx="0" dy="8" stdDeviation="5" flood-color="#050009" flood-opacity="0.55"/>
    </filter>
  </defs>
  <g filter="url(#shadow)">
    <path d="M76 122c-26 18-35 46-19 59 13 11 33 0 34-20" fill="none" stroke="url(#evilOctoTentacle)" stroke-width="21" stroke-linecap="round"/>
    <path d="M100 136c-26 25-28 57-6 66 17 7 33-11 29-32" fill="none" stroke="url(#evilOctoTentacle)" stroke-width="20" stroke-linecap="round"/>
    <path d="M128 139c-14 29-8 64 16 66 18 1 29-22 18-41" fill="none" stroke="url(#evilOctoTentacle)" stroke-width="20" stroke-linecap="round"/>
    <path d="M157 134c20 27 50 36 63 17 10-15-5-32-28-31" fill="none" stroke="url(#evilOctoTentacle)" stroke-width="20" stroke-linecap="round"/>
    <path d="M74 72c10-34 38-54 61-52 25 2 50 24 58 58 10 42-19 83-65 83-47 0-68-45-54-89z" fill="url(#evilOctoBody)" stroke="#2b053f" stroke-width="7"/>
    <path d="M81 65l-32-22 13 39" fill="#ff4f7a" stroke="#fff0fb" stroke-width="5" stroke-linejoin="round"/>
    <path d="M176 64l31-24-11 41" fill="#ff4f7a" stroke="#fff0fb" stroke-width="5" stroke-linejoin="round"/>
    <path d="M93 86l28 9M163 86l-28 9" stroke="#12031b" stroke-width="10" stroke-linecap="round"/>
    <ellipse cx="104" cy="101" rx="15" ry="18" fill="#090312"/>
    <ellipse cx="153" cy="101" rx="15" ry="18" fill="#090312"/>
    <circle cx="108" cy="101" r="5" fill="#ff2c3d"/>
    <circle cx="149" cy="101" r="5" fill="#ff2c3d"/>
    <path d="M105 126c14 13 32 13 46 0" fill="none" stroke="#0b0213" stroke-width="9" stroke-linecap="round"/>
    <path d="M63 92c20-47 73-67 116-36" fill="none" stroke="#ffd6ff" stroke-width="7" stroke-linecap="round" opacity=".32"/>
    <g fill="#ff3b73" opacity=".9">
      <circle cx="73" cy="150" r="5"/><circle cx="94" cy="177" r="4"/><circle cx="155" cy="175" r="4"/><circle cx="190" cy="143" r="5"/>
    </g>
  </g>
</svg>